<?xml version="1.0" standalone="no"?>
<!DOCTYPE svg PUBLIC "-//W3C//DTD SVG 20010904//EN"
 "http://www.w3.org/TR/2001/REC-SVG-20010904/DTD/svg10.dtd">
<svg version="1.0" xmlns="http://www.w3.org/2000/svg"
 width="328.000000pt" height="125.000000pt" viewBox="0 0 328.000000 125.000000"
 preserveAspectRatio="xMidYMid meet">

<g transform="translate(0.000000,125.000000) scale(0.100000,-0.100000)"
fill="#000000" stroke="none">
<path d="M1130 625 c0 -410 3 -625 10 -625 7 0 10 215 10 625 0 410 -3 625
-10 625 -7 0 -10 -215 -10 -625z"/>
<path d="M1196 1243 c-3 -3 -6 -285 -6 -625 0 -543 2 -618 15 -618 13 0 15 75
15 619 0 341 -4 622 -9 625 -4 3 -11 3 -15 -1z"/>
<path d="M1267 1243 c-12 -11 -8 -1245 3 -1241 10 3 16 1235 7 1245 -2 1 -7 0
-10 -4z"/>
<path d="M1460 795 l0 -135 30 0 30 0 0 106 0 105 38 -3 37 -3 3 -102 3 -103
194 0 194 0 3 103 3 102 38 3 37 3 0 -245 c0 -234 -1 -245 -20 -251 -10 -3
-28 -1 -39 5 -18 9 -21 22 -23 108 l-3 97 -260 0 -260 0 0 -135 0 -135 95 0
95 0 0 65 c0 63 -1 65 -27 68 -25 3 -28 0 -28 -27 0 -34 -29 -56 -60 -46 -17
6 -20 16 -20 76 l0 69 205 0 204 0 3 -102 3 -103 95 0 95 0 3 308 2 307 -100
0 -99 0 -3 -102 -3 -103 -132 -3 -133 -3 0 106 0 105 -100 0 -100 0 0 -135z"/>
<path d="M2265 918 c-3 -7 -4 -146 -3 -308 l3 -295 100 0 100 0 3 28 c3 27
-45 137 -60 137 -4 0 -8 -22 -8 -49 0 -52 -17 -69 -54 -55 -14 5 -16 33 -16
251 l0 244 58 -3 57 -3 112 -195 c62 -107 117 -195 123 -195 7 0 64 89 127
198 l115 198 57 -3 56 -3 3 -236 c3 -258 0 -268 -53 -255 l-25 6 -2 198 -3
197 -115 -198 c-160 -275 -157 -275 -315 -3 -59 102 -111 189 -116 192 -5 3
-9 -18 -9 -46 0 -45 9 -66 81 -193 134 -235 118 -217 197 -217 37 0 72 4 78 8
5 4 37 53 69 110 32 56 62 99 67 94 4 -4 9 -52 10 -107 l3 -100 95 0 95 0 3
308 2 307 -109 0 -109 0 -94 -167 c-51 -93 -99 -168 -106 -168 -7 0 -54 74
-105 165 l-93 165 -107 3 c-81 2 -109 -1 -112 -10z"/>
<path d="M443 623 c-39 -103 -68 -194 -66 -201 3 -7 13 -12 21 -10 18 4 166
373 157 389 -4 5 -14 9 -24 9 -14 0 -33 -41 -88 -187z"/>
<path d="M226 711 c-68 -69 -87 -93 -82 -108 8 -24 169 -183 185 -183 6 0 14
7 18 16 4 11 -19 40 -73 95 l-78 78 77 80 c42 43 77 86 77 95 0 35 -39 12
-124 -73z"/>
<path d="M580 783 c0 -10 34 -52 75 -93 l75 -75 -75 -75 c-72 -71 -88 -101
-64 -116 12 -7 199 173 199 191 0 5 -39 49 -87 97 -85 85 -123 107 -123 71z"/>
</g>
</svg>
